<svg xmlns="http://www.w3.org/2000/svg" width="240" height="240" viewBox="0 0 240 240" fill="none">
  <defs>
    <linearGradient id="gold" x1="0" y1="0" x2="160" y2="160" gradientUnits="userSpaceOnUse">
      <stop offset="0%" stop-color="#E3C98E" stop-opacity="0.20"/>
      <stop offset="50%" stop-color="#C29A57" stop-opacity="0.2"/>
      <stop offset="100%" stop-color="#8A6733" stop-opacity="0.12"/>
    </linearGradient>

    <filter id="softGlow" x="-20%" y="-20%" width="140%" height="140%">
      <feGaussianBlur stdDeviation="0.45" result="blur"/>
      <feMerge>
        <feMergeNode in="blur"/>
        <feMergeNode in="SourceGraphic"/>
      </feMerge>
    </filter>
  </defs>

  <g stroke="url(#gold)" stroke-width="0.85" fill="none" filter="url(#softGlow)">
    <rect x="0.5" y="0.5" width="239" height="239"/>
    <rect x="40" y="40" width="160" height="160" transform="rotate(45 120 120)"/>

    <path d="M120 34L140 80L186 100L140 120L120 166L100 120L54 100L100 80Z"/>
    <path d="M120 54L134 88L168 102L134 116L120 150L106 116L72 102L106 88Z"/>

    <path d="M120 0V34M240 120H206M120 240V206M0 120H34"/>
    <path d="M60 60L88 88M180 60L152 88M180 180L152 152M60 180L88 152"/>

    <path d="M120 34L152 34L186 68L186 100"/>
    <path d="M206 120L206 152L172 186L140 186"/>
    <path d="M120 206L88 206L54 172L54 140"/>
    <path d="M34 120L34 88L68 54L100 54"/>

    <path d="M40 20L60 40L40 60L20 40Z"/>
    <path d="M200 20L220 40L200 60L180 40Z"/>
    <path d="M200 180L220 200L200 220L180 200Z"/>
    <path d="M40 180L60 200L40 220L20 200Z"/>

    <path d="M88 88L120 74L152 88L166 120L152 152L120 166L88 152L74 120Z"/>
    <path d="M88 88L152 152M152 88L88 152"/>

    <path d="M0 0L40 40M240 0L200 40M240 240L200 200M0 240L40 200"/>
    <path d="M120 0L120 14M240 120L226 120M120 240L120 226M0 120L14 120"/>
  </g>
</svg>
