<?xml version="1.0" encoding="UTF-8" standalone="no"?>
<svg xmlns="http://www.w3.org/2000/svg" width="1320" height="250" viewBox="0 0 1320 250">
  <defs>
    <style>
      .staff { stroke:#111; stroke-width:3; }
      .barthin { stroke:#111; stroke-width:3; }
      .barthick { stroke:#111; stroke-width:8; }
      .notehead { fill:#111; }
      .stem { stroke:#111; stroke-width:4; }
      .beam { fill:#111; }
      .timesig { font-size:78px; fill:#111; font-family: Georgia, "Times New Roman", serif; font-weight:700; }
    </style>
  </defs>

  <rect width="100%" height="100%" fill="white"/>
  <line class="staff" x1="40" y1="120" x2="1280" y2="120"/>

  <line class="barthick" x1="68" y1="45" x2="68" y2="195"/>
  <line class="barthin" x1="84" y1="45" x2="84" y2="195"/>

  <!-- 9/8 -->
  <text class="timesig" x="128" y="113">9</text>
  <text class="timesig" x="128" y="172">8</text>

  <!-- 1/4 DOM -->
  <ellipse class="notehead" cx="250" cy="120" rx="16" ry="11"/>
  <line class="stem" x1="265" y1="120" x2="265" y2="36"/>

  <!-- 1/4 TAK -->
  <ellipse class="notehead" cx="500" cy="120" rx="16" ry="11"/>
  <line class="stem" x1="485" y1="117" x2="485" y2="201"/>

  <!-- 1/4 DOM -->
  <ellipse class="notehead" cx="720" cy="120" rx="16" ry="11"/>
  <line class="stem" x1="735" y1="120" x2="735" y2="36"/>

  <!-- 1/4 TAK -->
  <ellipse class="notehead" cx="950" cy="120" rx="16" ry="11"/>
  <line class="stem" x1="935" y1="117" x2="935" y2="201"/>

  <!-- 1/8 TAK -->
  <ellipse class="notehead" cx="1130" cy="120" rx="16" ry="11"/>
  <line class="stem" x1="1115" y1="117" x2="1115" y2="201"/>
  <polygon class="beam" points="1115,201 1155,187 1155,179 1115,193"/>

  <line class="barthin" x1="1235" y1="45" x2="1235" y2="195"/>
</svg>
