<?xml version="1.0" encoding="UTF-8" standalone="no"?>
<svg xmlns="http://www.w3.org/2000/svg" width="1280" height="250" viewBox="0 0 1280 250">
  <defs>
    <style>
      .staff { stroke:#111; stroke-width:3; }
      .barthin { stroke:#111; stroke-width:3; }
      .barthick { stroke:#111; stroke-width:8; }
      .notehead { fill:#111; }
      .stem { stroke:#111; stroke-width:4; }
      .flag { fill:none; stroke:#111; stroke-width:3; stroke-linecap:round; stroke-linejoin:round; }
      .timesig { font-size:78px; fill:#111; font-family: Georgia, "Times New Roman", serif; font-weight:700; }
      .title { font-size:28px; fill:#111; font-family: Georgia, "Times New Roman", serif; font-weight:700; }
    </style>
  </defs>

  <rect width="100%" height="100%" fill="white"/>

  <!-- title -->
  <text class="title" x="640" y="32" text-anchor="middle">Baladi (Masmoudi Saghir)</text>

  <!-- single middle staff line -->
  <line class="staff" x1="40" y1="120" x2="1240" y2="120"/>

  <!-- opening barline -->
  <line class="barthick" x1="68" y1="45" x2="68" y2="195"/>
  <line class="barthin" x1="84" y1="45" x2="84" y2="195"/>

  <!-- 4/4 time signature -->
  <text class="timesig" x="128" y="113">4</text>
  <text class="timesig" x="128" y="172">4</text>

  <!-- 1/8 DOM -->
  <ellipse class="notehead" cx="250" cy="120" rx="16" ry="11"/>
  <line class="stem" x1="265" y1="120" x2="265" y2="36"/>
  <path class="flag" d="M265 36 C279 38, 293 47, 302 64" />

  <!-- 1/4 DOM -->
  <ellipse class="notehead" cx="405" cy="120" rx="16" ry="11"/>
  <line class="stem" x1="420" y1="120" x2="420" y2="36"/>

  <!-- 1/8 TAK -->
  <ellipse class="notehead" cx="575" cy="120" rx="16" ry="11"/>
  <line class="stem" x1="560" y1="117" x2="560" y2="201"/>
  <path class="flag" d="M560 201 C574 197, 589 188, 600 171" />

  <!-- 1/4 DOM -->
  <ellipse class="notehead" cx="760" cy="120" rx="16" ry="11"/>
  <line class="stem" x1="775" y1="120" x2="775" y2="36"/>

  <!-- 1/4 TAK -->
  <ellipse class="notehead" cx="945" cy="120" rx="16" ry="11"/>
  <line class="stem" x1="930" y1="117" x2="930" y2="201"/>

  <!-- final barline -->
  <line class="barthin" x1="1115" y1="45" x2="1115" y2="195"/>
</svg>
