<?xml version="1.0" encoding="UTF-8" standalone="no"?>
<svg xmlns="http://www.w3.org/2000/svg" width="1550" height="250" viewBox="0 0 1550 250">
  <defs>
    <style>
      .staff { stroke:#111; stroke-width:3; }
      .barthin { stroke:#111; stroke-width:3; }
      .barthick { stroke:#111; stroke-width:8; }
      .notehead { fill:#111; }
      .stem { stroke:#111; stroke-width:4; }
      .beam { fill:#111; }
      .flag { fill:none; stroke:#111; stroke-width:3; stroke-linecap:round; stroke-linejoin:round; }
      .timesig { font-size:78px; fill:#111; font-family: Georgia, "Times New Roman", serif; font-weight:700; }
      .rest8 { font-size:118px; fill:#111; font-family:"Bravura","Noto Music","Segoe UI Symbol",serif; text-anchor:middle; dominant-baseline:middle; }
      .rest16 { font-size:104px; fill:#111; font-family:"Bravura","Noto Music","Segoe UI Symbol",serif; text-anchor:middle; dominant-baseline:middle; }
    </style>
  </defs>

  <rect width="100%" height="100%" fill="white"/>

  <line class="staff" x1="40" y1="120" x2="1510" y2="120"/>

  <line class="barthick" x1="68" y1="45" x2="68" y2="195"/>
  <line class="barthin" x1="84" y1="45" x2="84" y2="195"/>

  <!-- 8/8 -->
  <text class="timesig" x="128" y="113">8</text>
  <text class="timesig" x="128" y="172">8</text>

  <!-- three 1/8 DOM -->
  <ellipse class="notehead" cx="250" cy="120" rx="16" ry="11"/>
  <line class="stem" x1="265" y1="120" x2="265" y2="36"/>
  <path class="flag" d="M265 36 C279 38, 293 47, 302 64"/>

  <ellipse class="notehead" cx="400" cy="120" rx="16" ry="11"/>
  <line class="stem" x1="415" y1="120" x2="415" y2="36"/>
  <path class="flag" d="M415 36 C429 38, 443 47, 452 64"/>

  <ellipse class="notehead" cx="550" cy="120" rx="16" ry="11"/>
  <line class="stem" x1="565" y1="120" x2="565" y2="36"/>
  <path class="flag" d="M565 36 C579 38, 593 47, 602 64"/>

  <!-- 1/16 rest -->
  <text class="rest16" x="700" y="115">𝄿</text>

  <!-- 1/16 TAK -->
  <ellipse class="notehead" cx="820" cy="120" rx="16" ry="11"/>
  <line class="stem" x1="805" y1="117" x2="805" y2="201"/>
  <path class="flag" d="M805 201 C819 197, 834 188, 845 171"/>
  <path class="flag" d="M805 184 C818 180, 832 171, 842 155"/>

  <!-- 1/8 rest -->
  <text class="rest8" x="960" y="115">𝄾</text>

  <!-- 1/8 TAK -->
  <ellipse class="notehead" cx="1100" cy="120" rx="16" ry="11"/>
  <line class="stem" x1="1085" y1="117" x2="1085" y2="201"/>
  <path class="flag" d="M1085 201 C1099 197, 1114 188, 1125 171"/>

  <!-- four connected 1/16 TAK -->
  <ellipse class="notehead" cx="1260" cy="120" rx="16" ry="11"/>
  <line class="stem" x1="1245" y1="117" x2="1245" y2="201"/>

  <ellipse class="notehead" cx="1340" cy="120" rx="16" ry="11"/>
  <line class="stem" x1="1325" y1="117" x2="1325" y2="201"/>

  <ellipse class="notehead" cx="1420" cy="120" rx="16" ry="11"/>
  <line class="stem" x1="1405" y1="117" x2="1405" y2="201"/>

  <ellipse class="notehead" cx="1500" cy="120" rx="16" ry="11"/>
  <line class="stem" x1="1485" y1="117" x2="1485" y2="201"/>

  <polygon class="beam" points="1245,201 1485,201 1485,193 1245,193"/>
  <polygon class="beam" points="1245,184 1485,184 1485,176 1245,176"/>

  <line class="barthin" x1="1530" y1="45" x2="1530" y2="195"/>
</svg>
