<?xml version="1.0" encoding="UTF-8" standalone="no"?>
<svg xmlns="http://www.w3.org/2000/svg" width="1900" height="250" viewBox="0 0 1900 250">
  <defs>
    <style>
      .staff { stroke:#111; stroke-width:3; }
      .barthin { stroke:#111; stroke-width:3; }
      .barthick { stroke:#111; stroke-width:8; }
      .notehead { fill:#111; }
      .stem { stroke:#111; stroke-width:4; }
      .timesig { font-size:78px; fill:#111; font-family: Georgia, "Times New Roman", serif; font-weight:700; }
      .rest8 { font-size:118px; fill:#111; font-family:"Bravura","Noto Music","Segoe UI Symbol",serif; text-anchor:middle; dominant-baseline:middle; }
    </style>
  </defs>

  <rect width="100%" height="100%" fill="white"/>

  <line class="staff" x1="40" y1="120" x2="1860" y2="120"/>

  <line class="barthick" x1="68" y1="45" x2="68" y2="195"/>
  <line class="barthin" x1="84" y1="45" x2="84" y2="195"/>

  <!-- 8/4 -->
  <text class="timesig" x="128" y="113">8</text>
  <text class="timesig" x="128" y="172">4</text>

  <!-- 1/4 DOM -->
  <ellipse class="notehead" cx="250" cy="120" rx="16" ry="11"/>
  <line class="stem" x1="265" y1="120" x2="265" y2="36"/>

  <!-- 1/8 rest -->
  <text class="rest8" x="395" y="115">𝄾</text>

  <!-- 1/4 TAK -->
  <ellipse class="notehead" cx="550" cy="120" rx="16" ry="11"/>
  <line class="stem" x1="535" y1="117" x2="535" y2="201"/>

  <!-- 1/8 rest -->
  <text class="rest8" x="695" y="115">𝄾</text>

  <!-- 1/4 TAK -->
  <ellipse class="notehead" cx="850" cy="120" rx="16" ry="11"/>
  <line class="stem" x1="835" y1="117" x2="835" y2="201"/>

  <!-- 1/8 rest -->
  <text class="rest8" x="995" y="115">𝄾</text>

  <!-- 1/4 TAK -->
  <ellipse class="notehead" cx="1150" cy="120" rx="16" ry="11"/>
  <line class="stem" x1="1135" y1="117" x2="1135" y2="201"/>

  <!-- 1/8 rest -->
  <text class="rest8" x="1295" y="115">𝄾</text>

  <!-- 1/4 DOM -->
  <ellipse class="notehead" cx="1450" cy="120" rx="16" ry="11"/>
  <line class="stem" x1="1465" y1="120" x2="1465" y2="36"/>

  <!-- 1/4 DOM -->
  <ellipse class="notehead" cx="1650" cy="120" rx="16" ry="11"/>
  <line class="stem" x1="1665" y1="120" x2="1665" y2="36"/>

  <line class="barthin" x1="1775" y1="45" x2="1775" y2="195"/>
</svg>
