<?xml version="1.0" encoding="UTF-8" standalone="no"?>
<svg xmlns="http://www.w3.org/2000/svg" width="1500" height="250" viewBox="0 0 1500 250">
  <defs>
    <style>
      .staff { stroke:#111; stroke-width:3; }
      .barthin { stroke:#111; stroke-width:3; }
      .barthick { stroke:#111; stroke-width:8; }
      .notehead { fill:#111; }
      .stem { stroke:#111; stroke-width:4; }
      .beam { fill:#111; }
      .timesig { font-size:78px; fill:#111; font-family: Georgia, "Times New Roman", serif; font-weight:700; }
      .rest16 { font-size:104px; fill:#111; font-family: "Bravura", "Noto Music", "Segoe UI Symbol", serif; text-anchor:middle; dominant-baseline:middle; }
    </style>
  </defs>

  <rect width="100%" height="100%" fill="white"/>
  <line class="staff" x1="40" y1="120" x2="1460" y2="120"/>

  <line class="barthick" x1="68" y1="45" x2="68" y2="195"/>
  <line class="barthin" x1="84" y1="45" x2="84" y2="195"/>

  <!-- 10/16 -->
  <text class="timesig" x="128" y="113">10</text>
  <text class="timesig" x="128" y="172">16</text>

  <!-- 1/8 DOM -->
  <ellipse class="notehead" cx="255" cy="120" rx="16" ry="11"/>
  <line class="stem" x1="270" y1="120" x2="270" y2="36"/>
  <polygon class="beam" points="270,36 270,44 308,58 308,50"/>

  <!-- 1/16 TAK -->
  <ellipse class="notehead" cx="410" cy="120" rx="16" ry="11"/>
  <line class="stem" x1="395" y1="117" x2="395" y2="201"/>
  <polygon class="beam" points="395,201 435,187 435,179 395,193"/>
  <polygon class="beam" points="395,184 429,171 429,163 395,176"/>

  <!-- 1/8 TAK -->
  <ellipse class="notehead" cx="560" cy="120" rx="16" ry="11"/>
  <line class="stem" x1="545" y1="117" x2="545" y2="201"/>
  <polygon class="beam" points="545,201 585,187 585,179 545,193"/>

  <!-- 1/8 DOM -->
  <ellipse class="notehead" cx="760" cy="120" rx="16" ry="11"/>
  <line class="stem" x1="775" y1="120" x2="775" y2="36"/>
  <polygon class="beam" points="775,36 775,44 813,58 813,50"/>

  <!-- 1/8 TAK -->
  <ellipse class="notehead" cx="965" cy="120" rx="16" ry="11"/>
  <line class="stem" x1="950" y1="117" x2="950" y2="201"/>
  <polygon class="beam" points="950,201 990,187 990,179 950,193"/>

  <!-- 1/16 rest -->
  <text class="rest16" x="1140" y="115">𝄿</text>

  <line class="barthin" x1="1280" y1="45" x2="1280" y2="195"/>
</svg>
