<?xml version="1.0" encoding="UTF-8" standalone="no"?>
<svg xmlns="http://www.w3.org/2000/svg" width="980" height="250" viewBox="0 0 980 250">
  <defs>
    <style>
      .staff { stroke:#111; stroke-width:3; }
      .barthin { stroke:#111; stroke-width:3; }
      .barthick { stroke:#111; stroke-width:8; }
      .notehead { fill:#111; }
      .stem { stroke:#111; stroke-width:4; }
      .flag { fill:none; stroke:#111; stroke-width:3; stroke-linecap:round; stroke-linejoin:round; }
      .timesig { font-size:78px; fill:#111; font-family: Georgia, "Times New Roman", serif; font-weight:700; }
    </style>
  </defs>

  <rect width="100%" height="100%" fill="white"/>

  <line class="staff" x1="40" y1="120" x2="940" y2="120"/>

  <line class="barthick" x1="68" y1="45" x2="68" y2="195"/>
  <line class="barthin" x1="84" y1="45" x2="84" y2="195"/>

  <!-- 2/4 -->
  <text class="timesig" x="128" y="113">2</text>
  <text class="timesig" x="128" y="172">4</text>

  <!-- 1/4 TAK -->
  <ellipse class="notehead" cx="255" cy="120" rx="16" ry="11"/>
  <line class="stem" x1="240" y1="117" x2="240" y2="201"/>

  <!-- 1/8 TAK -->
  <ellipse class="notehead" cx="500" cy="120" rx="16" ry="11"/>
  <line class="stem" x1="485" y1="117" x2="485" y2="201"/>
  <path class="flag" d="M485 201 C499 197, 514 188, 525 171" />

  <!-- 1/8 DOM -->
  <ellipse class="notehead" cx="700" cy="120" rx="16" ry="11"/>
  <line class="stem" x1="715" y1="120" x2="715" y2="36"/>
  <path class="flag" d="M715 36 C729 38, 743 47, 752 64" />

  <line class="barthin" x1="840" y1="45" x2="840" y2="195"/>
</svg>
