<?xml version="1.0" encoding="UTF-8" standalone="no"?>
<svg xmlns="http://www.w3.org/2000/svg" width="1400" height="250" viewBox="0 0 1400 250">
  <defs>
    <style>
      .staff { stroke:#111; stroke-width:3; }
      .barthin { stroke:#111; stroke-width:3; }
      .barthick { stroke:#111; stroke-width:8; }
      .notehead { fill:#111; }
      .stem { stroke:#111; stroke-width:4; }
      .flag { fill:none; stroke:#111; stroke-width:3; stroke-linecap:round; stroke-linejoin:round; }
      .timesig { font-size:78px; fill:#111; font-family: Georgia, "Times New Roman", serif; font-weight:700; }
      .rest8 { font-size:118px; fill:#111; font-family:"Bravura","Noto Music","Segoe UI Symbol",serif; text-anchor:middle; dominant-baseline:middle; }
    </style>
  </defs>
  <rect width="100%" height="100%" fill="white"/>
  <line class="staff" x1="40" y1="120" x2="1360" y2="120"/>
  <line class="barthick" x1="68" y1="45" x2="68" y2="195"/>
  <line class="barthin" x1="84" y1="45" x2="84" y2="195"/>
  <text class="timesig" x="128" y="113">4</text>
  <text class="timesig" x="128" y="172">4</text>

  <text class="rest8" x="250" y="115">𝄾</text>

  <ellipse class="notehead" cx="400" cy="120" rx="16" ry="11"/>
  <line class="stem" x1="415" y1="120" x2="415" y2="36"/>
  <path class="flag" d="M415 36 C429 38, 443 47, 452 64"/>

  <text class="rest8" x="540" y="115">𝄾</text>

  <ellipse class="notehead" cx="690" cy="120" rx="16" ry="11"/>
  <line class="stem" x1="675" y1="117" x2="675" y2="201"/>
  <path class="flag" d="M675 201 C689 197, 704 188, 715 171"/>

  <ellipse class="notehead" cx="920" cy="120" rx="16" ry="11"/>
  <line class="stem" x1="935" y1="120" x2="935" y2="36"/>

  <ellipse class="notehead" cx="1130" cy="120" rx="16" ry="11"/>
  <line class="stem" x1="1115" y1="117" x2="1115" y2="201"/>

  <line class="barthin" x1="1250" y1="45" x2="1250" y2="195"/>
</svg>
