<?xml version="1.0" encoding="UTF-8" standalone="no"?>
<svg xmlns="http://www.w3.org/2000/svg" width="1750" height="250" viewBox="0 0 1750 250">
  <defs>
    <style>
      .staff { stroke:#111; stroke-width:3; }
      .barthin { stroke:#111; stroke-width:3; }
      .barthick { stroke:#111; stroke-width:8; }
      .notehead { fill:#111; }
      .stem { stroke:#111; stroke-width:4; }
      .timesig { font-size:78px; fill:#111; font-family: Georgia, "Times New Roman", serif; font-weight:700; }
      .rest4 { font-size:118px; fill:#111; font-family:"Bravura","Noto Music","Segoe UI Symbol",serif; text-anchor:middle; dominant-baseline:middle; }
    </style>
  </defs>
  <rect width="100%" height="100%" fill="white"/>
  <line class="staff" x1="40" y1="120" x2="1710" y2="120"/>
  <line class="barthick" x1="68" y1="45" x2="68" y2="195"/>
  <line class="barthin" x1="84" y1="45" x2="84" y2="195"/>
  <text class="timesig" x="128" y="113">8</text>
  <text class="timesig" x="128" y="172">4</text>

  <ellipse class="notehead" cx="250" cy="120" rx="16" ry="11"/><line class="stem" x1="265" y1="120" x2="265" y2="36"/>
  <ellipse class="notehead" cx="420" cy="120" rx="16" ry="11"/><line class="stem" x1="435" y1="120" x2="435" y2="36"/>
  <ellipse class="notehead" cx="590" cy="120" rx="16" ry="11"/><line class="stem" x1="605" y1="120" x2="605" y2="36"/>
  <text class="rest4" x="760" y="115">𝄽</text>
  <ellipse class="notehead" cx="930" cy="120" rx="16" ry="11"/><line class="stem" x1="945" y1="120" x2="945" y2="36"/>
  <text class="rest4" x="1100" y="115">𝄽</text>
  <ellipse class="notehead" cx="1270" cy="120" rx="16" ry="11"/><line class="stem" x1="1255" y1="117" x2="1255" y2="201"/>
  <text class="rest4" x="1440" y="115">𝄽</text>

  <line class="barthin" x1="1560" y1="45" x2="1560" y2="195"/>
</svg>
