<?xml version="1.0" encoding="UTF-8" standalone="no"?>
<svg xmlns="http://www.w3.org/2000/svg" width="2400" height="250" viewBox="0 0 2400 250">
  <defs>
    <style>
      .staff { stroke:#111; stroke-width:3; }
      .barthin { stroke:#111; stroke-width:3; }
      .barthick { stroke:#111; stroke-width:8; }
      .notehead { fill:#111; }
      .stem { stroke:#111; stroke-width:4; }
      .timesig { font-size:78px; fill:#111; font-family: Georgia, "Times New Roman", serif; font-weight:700; }
      .rest4 { font-size:118px; fill:#111; font-family:"Bravura","Noto Music","Segoe UI Symbol",serif; text-anchor:middle; dominant-baseline:middle; }
    </style>
  </defs>

  <rect width="100%" height="100%" fill="white"/>

  <line class="staff" x1="40" y1="120" x2="2360" y2="120"/>

  <line class="barthick" x1="68" y1="45" x2="68" y2="195"/>
  <line class="barthin" x1="84" y1="45" x2="84" y2="195"/>

  <!-- 12/4 -->
  <text class="timesig" x="128" y="113">12</text>
  <text class="timesig" x="128" y="172">4</text>

  <!-- 1: 1/4 TAK -->
  <ellipse class="notehead" cx="260" cy="120" rx="16" ry="11"/>
  <line class="stem" x1="245" y1="117" x2="245" y2="201"/>

  <!-- 2: 1/4 rest -->
  <text class="rest4" x="430" y="115">𝄽</text>

  <!-- 3: 1/4 DOM -->
  <ellipse class="notehead" cx="600" cy="120" rx="16" ry="11"/>
  <line class="stem" x1="615" y1="120" x2="615" y2="36"/>

  <!-- 4: 1/4 rest -->
  <text class="rest4" x="770" y="115">𝄽</text>

  <!-- 5: 1/4 TAK -->
  <ellipse class="notehead" cx="940" cy="120" rx="16" ry="11"/>
  <line class="stem" x1="925" y1="117" x2="925" y2="201"/>

  <!-- 6: 1/4 rest -->
  <text class="rest4" x="1110" y="115">𝄽</text>

  <!-- 7: 1/4 DOM -->
  <ellipse class="notehead" cx="1280" cy="120" rx="16" ry="11"/>
  <line class="stem" x1="1295" y1="120" x2="1295" y2="36"/>

  <!-- 8: 1/4 DOM -->
  <ellipse class="notehead" cx="1440" cy="120" rx="16" ry="11"/>
  <line class="stem" x1="1455" y1="120" x2="1455" y2="36"/>

  <!-- 9: 1/4 DOM -->
  <ellipse class="notehead" cx="1600" cy="120" rx="16" ry="11"/>
  <line class="stem" x1="1615" y1="120" x2="1615" y2="36"/>

  <!-- 10: 1/4 rest -->
  <text class="rest4" x="1770" y="115">𝄽</text>

  <!-- 11: 1/4 TAK -->
  <ellipse class="notehead" cx="1940" cy="120" rx="16" ry="11"/>
  <line class="stem" x1="1925" y1="117" x2="1925" y2="201"/>

  <!-- 12: 1/4 rest -->
  <text class="rest4" x="2110" y="115">𝄽</text>

  <line class="barthin" x1="2240" y1="45" x2="2240" y2="195"/>
</svg>
