<?xml version="1.0" encoding="UTF-8" standalone="no"?>
<svg xmlns="http://www.w3.org/2000/svg" width="3200" height="250" viewBox="0 0 3200 250">
  <defs>
    <style>
      .staff { stroke:#111; stroke-width:3; }
      .barthin { stroke:#111; stroke-width:3; }
      .barthick { stroke:#111; stroke-width:8; }
      .notehead { fill:#111; }
      .stem { stroke:#111; stroke-width:4; }
      .flag { fill:none; stroke:#111; stroke-width:3; stroke-linecap:round; stroke-linejoin:round; }
      .timesig { font-size:78px; fill:#111; font-family: Georgia, "Times New Roman", serif; font-weight:700; }
      .rest4,.rest8 { font-size:118px; fill:#111; font-family:"Bravura","Noto Music","Segoe UI Symbol",serif; text-anchor:middle; dominant-baseline:middle; }
    </style>
  </defs>
  <rect width="100%" height="100%" fill="white"/>
  <line class="staff" x1="40" y1="120" x2="3160" y2="120"/>
  <line class="barthick" x1="68" y1="45" x2="68" y2="195"/>
  <line class="barthin" x1="84" y1="45" x2="84" y2="195"/>
  <text class="timesig" x="128" y="113">14</text>
  <text class="timesig" x="128" y="172">4</text>

  <!-- 1/4 group: dom dom dom rest tak rest dom -->
  <ellipse class="notehead" cx="250" cy="120" rx="16" ry="11"/><line class="stem" x1="265" y1="120" x2="265" y2="36"/>
  <ellipse class="notehead" cx="430" cy="120" rx="16" ry="11"/><line class="stem" x1="445" y1="120" x2="445" y2="36"/>
  <ellipse class="notehead" cx="610" cy="120" rx="16" ry="11"/><line class="stem" x1="625" y1="120" x2="625" y2="36"/>
  <text class="rest4" x="790" y="115">𝄽</text>
  <ellipse class="notehead" cx="970" cy="120" rx="16" ry="11"/><line class="stem" x1="955" y1="117" x2="955" y2="201"/>
  <text class="rest4" x="1150" y="115">𝄽</text>
  <ellipse class="notehead" cx="1330" cy="120" rx="16" ry="11"/><line class="stem" x1="1345" y1="120" x2="1345" y2="36"/>

  <!-- 1/8 rest tak -->
  <text class="rest8" x="1490" y="115">𝄾</text>
  <ellipse class="notehead" cx="1640" cy="120" rx="16" ry="11"/><line class="stem" x1="1625" y1="117" x2="1625" y2="201"/><path class="flag" d="M1625 201 C1639 197, 1654 188, 1665 171"/>

  <!-- 1/4 group: rest tak tak rest tak tak -->
  <text class="rest4" x="1810" y="115">𝄽</text>
  <ellipse class="notehead" cx="1990" cy="120" rx="16" ry="11"/><line class="stem" x1="1975" y1="117" x2="1975" y2="201"/>
  <ellipse class="notehead" cx="2170" cy="120" rx="16" ry="11"/><line class="stem" x1="2155" y1="117" x2="2155" y2="201"/>
  <text class="rest4" x="2350" y="115">𝄽</text>
  <ellipse class="notehead" cx="2530" cy="120" rx="16" ry="11"/><line class="stem" x1="2515" y1="117" x2="2515" y2="201"/>
  <ellipse class="notehead" cx="2710" cy="120" rx="16" ry="11"/><line class="stem" x1="2695" y1="117" x2="2695" y2="201"/>

  <line class="barthin" x1="2870" y1="45" x2="2870" y2="195"/>
</svg>
