<?xml version="1.0" encoding="UTF-8" standalone="no"?>
<svg xmlns="http://www.w3.org/2000/svg" width="3700" height="250" viewBox="0 0 3700 250">
  <defs>
    <style>
      .staff { stroke:#111; stroke-width:3; }
      .barthin { stroke:#111; stroke-width:3; }
      .barthick { stroke:#111; stroke-width:8; }
      .notehead { fill:#111; }
      .stem { stroke:#111; stroke-width:4; }
      .flag { fill:none; stroke:#111; stroke-width:3; stroke-linecap:round; stroke-linejoin:round; }
      .timesig { font-size:78px; fill:#111; font-family: Georgia, "Times New Roman", serif; font-weight:700; }
      .rest4,.rest8 { font-size:118px; fill:#111; font-family:"Bravura","Noto Music","Segoe UI Symbol",serif; text-anchor:middle; dominant-baseline:middle; }
    </style>
  </defs>
  <rect width="100%" height="100%" fill="white"/>
  <line class="staff" x1="40" y1="120" x2="3660" y2="120"/>
  <line class="barthick" x1="68" y1="45" x2="68" y2="195"/>
  <line class="barthin" x1="84" y1="45" x2="84" y2="195"/>
  <text class="timesig" x="128" y="113">16</text>
  <text class="timesig" x="128" y="172">4</text>

  <!-- 1/4 dom -->
  <ellipse class="notehead" cx="250" cy="120" rx="16" ry="11"/><line class="stem" x1="265" y1="120" x2="265" y2="36"/>
  <!-- 1/4 rest -->
  <text class="rest4" x="430" y="115">𝄽</text>
  <!-- 1/4 dom -->
  <ellipse class="notehead" cx="610" cy="120" rx="16" ry="11"/><line class="stem" x1="625" y1="120" x2="625" y2="36"/>
  <!-- 1/4 rest -->
  <text class="rest4" x="790" y="115">𝄽</text>
  <!-- 1/4 dom -->
  <ellipse class="notehead" cx="970" cy="120" rx="16" ry="11"/><line class="stem" x1="985" y1="120" x2="985" y2="36"/>

  <!-- 1/8 rest -->
  <text class="rest8" x="1140" y="115">𝄾</text>
  <!-- 1/8 tak -->
  <ellipse class="notehead" cx="1290" cy="120" rx="16" ry="11"/><line class="stem" x1="1275" y1="117" x2="1275" y2="201"/><path class="flag" d="M1275 201 C1289 197, 1304 188, 1315 171"/>

  <!-- 1/4 rest -->
  <text class="rest4" x="1460" y="115">𝄽</text>
  <!-- 1/4 tak -->
  <ellipse class="notehead" cx="1640" cy="120" rx="16" ry="11"/><line class="stem" x1="1625" y1="117" x2="1625" y2="201"/>
  <!-- 1/4 tak -->
  <ellipse class="notehead" cx="1820" cy="120" rx="16" ry="11"/><line class="stem" x1="1805" y1="117" x2="1805" y2="201"/>
  <!-- 1/4 rest -->
  <text class="rest4" x="2000" y="115">𝄽</text>
  <!-- 1/4 tak -->
  <ellipse class="notehead" cx="2180" cy="120" rx="16" ry="11"/><line class="stem" x1="2165" y1="117" x2="2165" y2="201"/>
  <!-- 1/4 tak -->
  <ellipse class="notehead" cx="2360" cy="120" rx="16" ry="11"/><line class="stem" x1="2345" y1="117" x2="2345" y2="201"/>
  <!-- 1/4 dom -->
  <ellipse class="notehead" cx="2540" cy="120" rx="16" ry="11"/><line class="stem" x1="2555" y1="120" x2="2555" y2="36"/>
  <!-- 1/4 rest -->
  <text class="rest4" x="2720" y="115">𝄽</text>
  <!-- 1/4 tak -->
  <ellipse class="notehead" cx="2900" cy="120" rx="16" ry="11"/><line class="stem" x1="2885" y1="117" x2="2885" y2="201"/>
  <!-- 1/4 tak -->
  <ellipse class="notehead" cx="3080" cy="120" rx="16" ry="11"/><line class="stem" x1="3065" y1="117" x2="3065" y2="201"/>

  <line class="barthin" x1="3260" y1="45" x2="3260" y2="195"/>
</svg>
