<?xml version="1.0" encoding="UTF-8" standalone="no"?>
<svg xmlns="http://www.w3.org/2000/svg" width="1700" height="250" viewBox="0 0 1700 250">
  <defs>
    <style>
      .staff { stroke:#111; stroke-width:3; }
      .barthin { stroke:#111; stroke-width:3; }
      .barthick { stroke:#111; stroke-width:8; }
      .notehead { fill:#111; }
      .stem { stroke:#111; stroke-width:4; }
      .timesig { font-size:78px; fill:#111; font-family: Georgia, "Times New Roman", serif; font-weight:700; }
      .rest4 { font-size:118px; fill:#111; font-family:"Bravura","Noto Music","Segoe UI Symbol",serif; text-anchor:middle; dominant-baseline:middle; }
    </style>
  </defs>
  <rect width="100%" height="100%" fill="white"/>
  <line class="staff" x1="40" y1="120" x2="1660" y2="120"/>
  <line class="barthick" x1="68" y1="45" x2="68" y2="195"/>
  <line class="barthin" x1="84" y1="45" x2="84" y2="195"/>
  <text class="timesig" x="128" y="113">7</text>
  <text class="timesig" x="128" y="172">4</text>

  <ellipse class="notehead" cx="250" cy="120" rx="16" ry="11"/><line class="stem" x1="265" y1="120" x2="265" y2="36"/>
  <text class="rest4" x="430" y="115">𝄽</text>
  <ellipse class="notehead" cx="610" cy="120" rx="16" ry="11"/><line class="stem" x1="595" y1="117" x2="595" y2="201"/>
  <ellipse class="notehead" cx="790" cy="120" rx="16" ry="11"/><line class="stem" x1="805" y1="120" x2="805" y2="36"/>
  <text class="rest4" x="970" y="115">𝄽</text>
  <ellipse class="notehead" cx="1150" cy="120" rx="16" ry="11"/><line class="stem" x1="1135" y1="117" x2="1135" y2="201"/>
  <ellipse class="notehead" cx="1330" cy="120" rx="16" ry="11"/><line class="stem" x1="1315" y1="117" x2="1315" y2="201"/>

  <line class="barthin" x1="1490" y1="45" x2="1490" y2="195"/>
</svg>
