<?xml version="1.0" encoding="UTF-8" standalone="no"?>
<svg xmlns="http://www.w3.org/2000/svg" width="1700" height="250" viewBox="0 0 1700 250">
  <defs>
    <style>
      .staff { stroke:#111; stroke-width:3; }
      .barthin { stroke:#111; stroke-width:3; }
      .barthick { stroke:#111; stroke-width:8; }
      .notehead { fill:#111; }
      .stem { stroke:#111; stroke-width:4; }
      .flag { fill:none; stroke:#111; stroke-width:3; stroke-linecap:round; stroke-linejoin:round; }
      .timesig { font-size:78px; fill:#111; font-family: Georgia, "Times New Roman", serif; font-weight:700; }
      .rest8 { font-size:118px; fill:#111; font-family:"Bravura","Noto Music","Segoe UI Symbol",serif; text-anchor:middle; dominant-baseline:middle; }
    </style>
  </defs>
  <rect width="100%" height="100%" fill="white"/>
  <line class="staff" x1="40" y1="120" x2="1660" y2="120"/>
  <line class="barthick" x1="68" y1="45" x2="68" y2="195"/>
  <line class="barthin" x1="84" y1="45" x2="84" y2="195"/>
  <text class="timesig" x="128" y="113">4</text>
  <text class="timesig" x="128" y="172">4</text>

  <ellipse class="notehead" cx="240" cy="120" rx="16" ry="11"/><line class="stem" x1="225" y1="117" x2="225" y2="201"/><path class="flag" d="M225 201 C239 197, 254 188, 265 171"/>
  <ellipse class="notehead" cx="390" cy="120" rx="16" ry="11"/><line class="stem" x1="405" y1="120" x2="405" y2="36"/><path class="flag" d="M405 36 C419 38, 433 47, 442 64"/>
  <text class="rest8" x="540" y="115">𝄾</text>
  <ellipse class="notehead" cx="690" cy="120" rx="16" ry="11"/><line class="stem" x1="675" y1="117" x2="675" y2="201"/><path class="flag" d="M675 201 C689 197, 704 188, 715 171"/>
  <ellipse class="notehead" cx="840" cy="120" rx="16" ry="11"/><line class="stem" x1="855" y1="120" x2="855" y2="36"/><path class="flag" d="M855 36 C869 38, 883 47, 892 64"/>
  <text class="rest8" x="990" y="115">𝄾</text>
  <ellipse class="notehead" cx="1140" cy="120" rx="16" ry="11"/><line class="stem" x1="1125" y1="117" x2="1125" y2="201"/><path class="flag" d="M1125 201 C1139 197, 1154 188, 1165 171"/>
  <text class="rest8" x="1290" y="115">𝄾</text>

  <line class="barthin" x1="1420" y1="45" x2="1420" y2="195"/>
</svg>
