<?xml version="1.0" encoding="UTF-8" standalone="no"?>
<svg xmlns="http://www.w3.org/2000/svg" width="1750" height="250" viewBox="0 0 1750 250">
  <defs>
    <style>
      .staff { stroke:#111; stroke-width:3; }
      .barthin { stroke:#111; stroke-width:3; }
      .barthick { stroke:#111; stroke-width:8; }
      .notehead { fill:#111; }
      .stem { stroke:#111; stroke-width:4; }
      .flag { fill:none; stroke:#111; stroke-width:3; stroke-linecap:round; stroke-linejoin:round; }
      .timesig { font-size:78px; fill:#111; font-family: Georgia, "Times New Roman", serif; font-weight:700; }
      .rest8 { font-size:118px; fill:#111; font-family:"Bravura","Noto Music","Segoe UI Symbol",serif; text-anchor:middle; dominant-baseline:middle; }
    </style>
  </defs>
  <rect width="100%" height="100%" fill="white"/>
  <line class="staff" x1="40" y1="120" x2="1710" y2="120"/>
  <line class="barthick" x1="68" y1="45" x2="68" y2="195"/>
  <line class="barthin" x1="84" y1="45" x2="84" y2="195"/>
  <text class="timesig" x="128" y="113">4</text>
  <text class="timesig" x="128" y="172">4</text>

  <ellipse class="notehead" cx="250" cy="120" rx="16" ry="11"/>
  <line class="stem" x1="265" y1="120" x2="265" y2="36"/>

  <text class="rest8" x="420" y="115">𝄾</text>

  <ellipse class="notehead" cx="560" cy="120" rx="16" ry="11"/>
  <line class="stem" x1="545" y1="117" x2="545" y2="201"/>
  <path class="flag" d="M545 201 C559 197, 574 188, 585 171"/>

  <text class="rest8" x="700" y="115">𝄾</text>

  <ellipse class="notehead" cx="860" cy="120" rx="16" ry="11"/>
  <line class="stem" x1="875" y1="120" x2="875" y2="36"/>
  <path class="flag" d="M875 36 C889 38, 903 47, 912 64"/>

  <text class="rest8" x="1010" y="115">𝄾</text>

  <ellipse class="notehead" cx="1160" cy="120" rx="16" ry="11"/>
  <line class="stem" x1="1145" y1="117" x2="1145" y2="201"/>
  <path class="flag" d="M1145 201 C1159 197, 1174 188, 1185 171"/>

  <line class="barthin" x1="1290" y1="45" x2="1290" y2="195"/>
</svg>
