<?xml version="1.0" encoding="UTF-8" standalone="no"?>
<svg xmlns="http://www.w3.org/2000/svg" width="2300" height="250" viewBox="0 0 2300 250">
  <defs>
    <style>
      .staff { stroke:#111; stroke-width:3; }
      .barthin { stroke:#111; stroke-width:3; }
      .barthick { stroke:#111; stroke-width:8; }
      .notehead { fill:#111; }
      .stem { stroke:#111; stroke-width:4; }
      .beam { fill:#111; }
      .flag { fill:none; stroke:#111; stroke-width:3; stroke-linecap:round; stroke-linejoin:round; }
      .timesig { font-size:78px; fill:#111; font-family: Georgia, "Times New Roman", serif; font-weight:700; }
      .rest8 { font-size:118px; fill:#111; font-family:"Bravura","Noto Music","Segoe UI Symbol",serif; text-anchor:middle; dominant-baseline:middle; }
    </style>
  </defs>
  <rect width="100%" height="100%" fill="white"/>
  <line class="staff" x1="40" y1="120" x2="2260" y2="120"/>
  <line class="barthick" x1="68" y1="45" x2="68" y2="195"/>
  <line class="barthin" x1="84" y1="45" x2="84" y2="195"/>
  <text class="timesig" x="128" y="113">6</text>
  <text class="timesig" x="128" y="172">4</text>

  <!-- 1/8 dom -->
  <ellipse class="notehead" cx="250" cy="120" rx="16" ry="11"/>
  <line class="stem" x1="265" y1="120" x2="265" y2="36"/>
  <path class="flag" d="M265 36 C279 38, 293 47, 302 64"/>

  <!-- two 1/16 tak -->
  <ellipse class="notehead" cx="390" cy="120" rx="16" ry="11"/>
  <line class="stem" x1="375" y1="117" x2="375" y2="201"/>
  <ellipse class="notehead" cx="490" cy="120" rx="16" ry="11"/>
  <line class="stem" x1="475" y1="117" x2="475" y2="201"/>
  <polygon class="beam" points="375,201 475,201 475,193 375,193"/>
  <polygon class="beam" points="375,184 475,184 475,176 375,176"/>

  <!-- 1/8 tak -->
  <ellipse class="notehead" cx="620" cy="120" rx="16" ry="11"/>
  <line class="stem" x1="605" y1="117" x2="605" y2="201"/>
  <path class="flag" d="M605 201 C619 197, 634 188, 645 171"/>

  <!-- 1/8 dom -->
  <ellipse class="notehead" cx="770" cy="120" rx="16" ry="11"/>
  <line class="stem" x1="785" y1="120" x2="785" y2="36"/>
  <path class="flag" d="M785 36 C799 38, 813 47, 822 64"/>

  <!-- 1/8 dom -->
  <ellipse class="notehead" cx="900" cy="120" rx="16" ry="11"/>
  <line class="stem" x1="915" y1="120" x2="915" y2="36"/>
  <path class="flag" d="M915 36 C929 38, 943 47, 952 64"/>

  <!-- two 1/16 tak -->
  <ellipse class="notehead" cx="1060" cy="120" rx="16" ry="11"/>
  <line class="stem" x1="1045" y1="117" x2="1045" y2="201"/>
  <ellipse class="notehead" cx="1160" cy="120" rx="16" ry="11"/>
  <line class="stem" x1="1145" y1="117" x2="1145" y2="201"/>
  <polygon class="beam" points="1045,201 1145,201 1145,193 1045,193"/>
  <polygon class="beam" points="1045,184 1145,184 1145,176 1045,176"/>

  <!-- 1/8 dom -->
  <ellipse class="notehead" cx="1310" cy="120" rx="16" ry="11"/>
  <line class="stem" x1="1325" y1="120" x2="1325" y2="36"/>
  <path class="flag" d="M1325 36 C1339 38, 1353 47, 1362 64"/>

  <!-- 1/8 dom -->
  <ellipse class="notehead" cx="1450" cy="120" rx="16" ry="11"/>
  <line class="stem" x1="1465" y1="120" x2="1465" y2="36"/>
  <path class="flag" d="M1465 36 C1479 38, 1493 47, 1502 64"/>

  <!-- 1/8 rest -->
  <text class="rest8" x="1600" y="115">𝄾</text>

  <!-- 1/8 tak -->
  <ellipse class="notehead" cx="1760" cy="120" rx="16" ry="11"/>
  <line class="stem" x1="1745" y1="117" x2="1745" y2="201"/>
  <path class="flag" d="M1745 201 C1759 197, 1774 188, 1785 171"/>

  <!-- 1/8 rest -->
  <text class="rest8" x="1915" y="115">𝄾</text>

  <line class="barthin" x1="2050" y1="45" x2="2050" y2="195"/>
</svg>
