<?xml version="1.0" encoding="UTF-8" standalone="no"?>
<svg xmlns="http://www.w3.org/2000/svg" width="1300" height="250" viewBox="0 0 1300 250">
  <defs>
    <style>
      .staff { stroke:#111; stroke-width:3; }
      .barthin { stroke:#111; stroke-width:3; }
      .barthick { stroke:#111; stroke-width:8; }
      .notehead { fill:#111; }
      .stem { stroke:#111; stroke-width:4; }
      .flag { fill:none; stroke:#111; stroke-width:3; stroke-linecap:round; stroke-linejoin:round; }
      .rest16 { font-size:104px; fill:#111; font-family:"Bravura","Noto Music","Segoe UI Symbol",serif; text-anchor:middle; dominant-baseline:middle; }
      .timesig { font-size:78px; fill:#111; font-family: Georgia, "Times New Roman", serif; font-weight:700; }
    </style>
  </defs>

  <rect width="100%" height="100%" fill="white"/>

  <line class="staff" x1="40" y1="120" x2="1260" y2="120"/>

  <line class="barthick" x1="68" y1="45" x2="68" y2="195"/>
  <line class="barthin" x1="84" y1="45" x2="84" y2="195"/>

  <!-- 4/4 -->
  <text class="timesig" x="128" y="113">4</text>
  <text class="timesig" x="128" y="172">4</text>

  <!-- 1/8 DOM -->
  <ellipse class="notehead" cx="250" cy="120" rx="16" ry="11"/>
  <line class="stem" x1="265" y1="120" x2="265" y2="36"/>
  <path class="flag" d="M265 36 C279 38, 293 47, 302 64"/>

  <!-- 1/16 rest -->
  <text class="rest16" x="395" y="115">𝄿</text>

  <!-- 1/16 TAK -->
  <ellipse class="notehead" cx="520" cy="120" rx="16" ry="11"/>
  <line class="stem" x1="505" y1="117" x2="505" y2="201"/>
  <path class="flag" d="M505 201 C519 197, 534 188, 545 171"/>
  <path class="flag" d="M505 184 C518 180, 532 171, 542 155"/>

  <!-- 1/8 TAK -->
  <ellipse class="notehead" cx="680" cy="120" rx="16" ry="11"/>
  <line class="stem" x1="665" y1="117" x2="665" y2="201"/>
  <path class="flag" d="M665 201 C679 197, 694 188, 705 171"/>

  <!-- 1/4 DOM -->
  <ellipse class="notehead" cx="900" cy="120" rx="16" ry="11"/>
  <line class="stem" x1="915" y1="120" x2="915" y2="36"/>

  <!-- 1/4 TAK -->
  <ellipse class="notehead" cx="1100" cy="120" rx="16" ry="11"/>
  <line class="stem" x1="1085" y1="117" x2="1085" y2="201"/>

  <line class="barthin" x1="1210" y1="45" x2="1210" y2="195"/>
</svg>
