<?xml version="1.0" encoding="UTF-8" standalone="no"?>
<svg xmlns="http://www.w3.org/2000/svg" width="1200" height="250" viewBox="0 0 1200 250">
  <defs>
    <style>
      .staff { stroke:#111; stroke-width:3; }
      .barthin { stroke:#111; stroke-width:3; }
      .barthick { stroke:#111; stroke-width:8; }
      .notehead { fill:#111; }
      .stem { stroke:#111; stroke-width:4; }
      .beam { fill:#111; }
      .timesig { font-size:78px; fill:#111; font-family: Georgia, "Times New Roman", serif; font-weight:700; }
    </style>
  </defs>
  <rect width="100%" height="100%" fill="white"/>
  <line class="staff" x1="40" y1="120" x2="1160" y2="120"/>
  <line class="barthick" x1="68" y1="45" x2="68" y2="195"/>
  <line class="barthin" x1="84" y1="45" x2="84" y2="195"/>
  <text class="timesig" x="128" y="113">4</text>
  <text class="timesig" x="128" y="172">4</text>

  <ellipse class="notehead" cx="250" cy="120" rx="16" ry="11"/>
  <line class="stem" x1="265" y1="120" x2="265" y2="36"/>

  <ellipse class="notehead" cx="500" cy="120" rx="16" ry="11"/>
  <line class="stem" x1="485" y1="117" x2="485" y2="201"/>

  <ellipse class="notehead" cx="650" cy="120" rx="16" ry="11"/>
  <line class="stem" x1="635" y1="117" x2="635" y2="201"/>

  <polygon class="beam" points="485,201 635,201 635,193 485,193"/>

  <ellipse class="notehead" cx="870" cy="120" rx="16" ry="11"/>
  <line class="stem" x1="885" y1="120" x2="885" y2="36"/>

  <ellipse class="notehead" cx="1060" cy="120" rx="16" ry="11"/>
  <line class="stem" x1="1045" y1="117" x2="1045" y2="201"/>

  <line class="barthin" x1="1135" y1="45" x2="1135" y2="195"/>
</svg>
