<?xml version="1.0" encoding="UTF-8" standalone="no"?>
<svg xmlns="http://www.w3.org/2000/svg" width="1250" height="250" viewBox="0 0 1250 250">
  <defs>
    <style>
      .staff { stroke:#111; stroke-width:3; }
      .barthin { stroke:#111; stroke-width:3; }
      .barthick { stroke:#111; stroke-width:8; }
      .notehead { fill:#111; }
      .stem { stroke:#111; stroke-width:4; }
      .flag { fill:none; stroke:#111; stroke-width:3; stroke-linecap:round; stroke-linejoin:round; }
      .timesig { font-size:78px; fill:#111; font-family: Georgia, "Times New Roman", serif; font-weight:700; }
    </style>
  </defs>

  <rect width="100%" height="100%" fill="white"/>

  <line class="staff" x1="40" y1="120" x2="1210" y2="120"/>

  <line class="barthick" x1="68" y1="45" x2="68" y2="195"/>
  <line class="barthin" x1="84" y1="45" x2="84" y2="195"/>

  <!-- 6/8 -->
  <text class="timesig" x="128" y="113">6</text>
  <text class="timesig" x="128" y="172">8</text>

  <!-- 1/8 DOM -->
  <ellipse class="notehead" cx="245" cy="120" rx="16" ry="11"/>
  <line class="stem" x1="260" y1="120" x2="260" y2="36"/>
  <path class="flag" d="M260 36 C274 38, 288 47, 297 64" />

  <!-- 1/8 TAK -->
  <ellipse class="notehead" cx="395" cy="120" rx="16" ry="11"/>
  <line class="stem" x1="380" y1="117" x2="380" y2="201"/>
  <path class="flag" d="M380 201 C394 197, 409 188, 420 171" />

  <!-- 1/8 TAK -->
  <ellipse class="notehead" cx="525" cy="120" rx="16" ry="11"/>
  <line class="stem" x1="510" y1="117" x2="510" y2="201"/>
  <path class="flag" d="M510 201 C524 197, 539 188, 550 171" />

  <!-- 1/8 DOM -->
  <ellipse class="notehead" cx="700" cy="120" rx="16" ry="11"/>
  <line class="stem" x1="715" y1="120" x2="715" y2="36"/>
  <path class="flag" d="M715 36 C729 38, 743 47, 752 64" />

  <!-- 1/8 TAK -->
  <ellipse class="notehead" cx="855" cy="120" rx="16" ry="11"/>
  <line class="stem" x1="840" y1="117" x2="840" y2="201"/>
  <path class="flag" d="M840 201 C854 197, 869 188, 880 171" />

  <!-- 1/8 TAK -->
  <ellipse class="notehead" cx="950" cy="120" rx="16" ry="11"/>
  <line class="stem" x1="935" y1="117" x2="935" y2="201"/>
  <path class="flag" d="M935 201 C949 197, 964 188, 975 171" />

  <line class="barthin" x1="990" y1="45" x2="990" y2="195"/>
</svg>
